<svg width="100" height="100" viewBox="0 0 100 100" fill="none" xmlns="http://www.w3.org/2000/svg">
<circle cx="50" cy="50" r="50" fill="#071A84"/>
<path d="M29.8616 38.94V43.05H24.2816V60H19.1516V43.05H13.5716V38.94H29.8616ZM55.9862 45.72C55.9862 46.94 55.7062 48.06 55.1462 49.08C54.5862 50.08 53.7262 50.89 52.5662 51.51C51.4062 52.13 49.9662 52.44 48.2462 52.44H45.0662V60H39.9362V38.94H48.2462C49.9262 38.94 51.3462 39.23 52.5062 39.81C53.6662 40.39 54.5362 41.19 55.1162 42.21C55.6962 43.23 55.9862 44.4 55.9862 45.72ZM47.8562 48.36C48.8362 48.36 49.5662 48.13 50.0462 47.67C50.5262 47.21 50.7662 46.56 50.7662 45.72C50.7662 44.88 50.5262 44.23 50.0462 43.77C49.5662 43.31 48.8362 43.08 47.8562 43.08H45.0662V48.36H47.8562ZM65.2869 49.44C65.2869 47.36 65.7369 45.51 66.6369 43.89C67.5369 42.25 68.7869 40.98 70.3869 40.08C72.0069 39.16 73.8369 38.7 75.8769 38.7C78.3769 38.7 80.5169 39.36 82.2969 40.68C84.0769 42 85.2669 43.8 85.8669 46.08H80.2269C79.8069 45.2 79.2069 44.53 78.4269 44.07C77.6669 43.61 76.7969 43.38 75.8169 43.38C74.2369 43.38 72.9569 43.93 71.9769 45.03C70.9969 46.13 70.5069 47.6 70.5069 49.44C70.5069 51.28 70.9969 52.75 71.9769 53.85C72.9569 54.95 74.2369 55.5 75.8169 55.5C76.7969 55.5 77.6669 55.27 78.4269 54.81C79.2069 54.35 79.8069 53.68 80.2269 52.8H85.8669C85.2669 55.08 84.0769 56.88 82.2969 58.2C80.5169 59.5 78.3769 60.15 75.8769 60.15C73.8369 60.15 72.0069 59.7 70.3869 58.8C68.7869 57.88 67.5369 56.61 66.6369 54.99C65.7369 53.37 65.2869 51.52 65.2869 49.44Z" fill="white"/>
</svg>
